<svg xmlns="http://www.w3.org/2000/svg" viewBox="0 0 100 100" width="100" height="100">
  <defs>
    <linearGradient id="bg" x1="0%" y1="0%" x2="100%" y2="100%">
      <stop offset="0%" style="stop-color:#3B82F6;stop-opacity:1" />
      <stop offset="100%" style="stop-color:#8B5CF6;stop-opacity:1" />
    </linearGradient>
  </defs>
  <rect width="100" height="100" rx="20" fill="url(#bg)"/>
  <path d="M50 15 C60 15 68 23 68 33 L68 40 C75 40 81 46 81 53 L81 67 C81 74 75 80 68 80 L32 80 C25 80 19 74 19 67 L19 53 C19 46 25 40 32 40 L32 33 C32 23 40 15 50 15 Z" fill="white" opacity="0.9"/>
  <circle cx="42" cy="35" r="3" fill="#3B82F6"/>
  <circle cx="58" cy="35" r="3" fill="#3B82F6"/>
  <path d="M45 50 L55 50 M50 45 L50 55" stroke="#3B82F6" stroke-width="3" stroke-linecap="round"/>
  <path d="M35 60 Q50 70 65 60" stroke="#3B82F6" stroke-width="2" stroke-linecap="round" fill="none"/>
</svg>
